<svg xmlns="http://www.w3.org/2000/svg" viewBox="0 0 12 12"><title>github_icon_black</title><g id="Layer_2" data-name="Layer 2"><g id="Capa_1" data-name="Capa 1"><path d="M11.88,4.94A6,6,0,0,0,4.71.15a6.14,6.14,0,0,0-4.62,7A6.08,6.08,0,0,0,2.8,11.36,5.58,5.58,0,0,0,4,12c.24.08.47,0,.48-.23s0-.73,0-1.09L4,10.7a1.49,1.49,0,0,1-1.61-1,1.56,1.56,0,0,0-.65-.83c-.09-.06-.23-.13-.19-.25s.2-.1.32-.09a1.17,1.17,0,0,1,.84.6A2,2,0,0,0,3,9.52a1.3,1.3,0,0,0,1.45.18s.05-.06.06-.1a1.44,1.44,0,0,1,.36-.75,6.16,6.16,0,0,1-.86-.17A2.37,2.37,0,0,1,2.48,7.43a3.44,3.44,0,0,1-.3-1.25,2.55,2.55,0,0,1,.55-1.93.13.13,0,0,0,0-.14,2.21,2.21,0,0,1,0-1.26c.09-.33.11-.34.44-.27a3.53,3.53,0,0,1,1.19.55.22.22,0,0,0,.2,0,5.2,5.2,0,0,1,2.84,0,.22.22,0,0,0,.2,0,4.06,4.06,0,0,1,.81-.44,1.56,1.56,0,0,1,.62-.13c.06,0,.1,0,.12.08a2.36,2.36,0,0,1,.08,1.44.2.2,0,0,0,0,.21,2.29,2.29,0,0,1,.48,1,3.7,3.7,0,0,1,0,1.23A2.38,2.38,0,0,1,8.1,8.63a6,6,0,0,1-1,.22A1.62,1.62,0,0,1,7.48,10c0,.52,0,1,0,1.56,0,.32.19.46.48.35A6.2,6.2,0,0,0,11.88,4.94Z"/></g></g></svg>