<svg xmlns="http://www.w3.org/2000/svg" viewBox="0 0 12 12"><defs><style>.cls-1{fill:#fff;}</style></defs><title>linkedin_icon</title><g id="Layer_2" data-name="Layer 2"><g id="Capa_1" data-name="Capa 1"><path class="cls-1" d="M6,0a6,6,0,1,0,6,6A6,6,0,0,0,6,0ZM3.92,9.5H2.42V4.6h1.5ZM3.19,3.89A.89.89,0,1,1,4.06,3,.89.89,0,0,1,3.19,3.89Zm5,5.62c0-.11,0-.22,0-.33,0-.73,0-1.46,0-2.19a2.88,2.88,0,0,0,0-.52.68.68,0,0,0-.7-.65.77.77,0,0,0-.87.58,2.88,2.88,0,0,0-.08.7c0,.69,0,1.38,0,2.07,0,.11,0,.22,0,.34H5V4.6H6.39l0,.6a1.81,1.81,0,0,1,1.8-.73A1.39,1.39,0,0,1,9.63,5.79c.12,1.22.11,2.46.16,3.72Z"/></g></g></svg>